# AST/ASF file generated using VICON BodyLanguage
# -----------------------------------------------
:version 1.10
:name VICON
:units
  mass 1.0
  length 0.45
  angle deg
:documentation
   .ast/.asf automatically generated from VICON data using
   VICON BodyBuilder and BodyLanguage model FoxedUp or BRILLIANT.MOD
:root
   order TX TY TZ RX RY RZ
   axis XYZ
   position 0 0 0  
   orientation 0 0 0 
:bonedata
  begin
     id 1 
     name lhipjoint
     direction 0.570549 -0.739093 0.358072 
     length 2.41801 
     axis 0 0 0  XYZ
  end
  begin
     id 2 
     name lfemur
     direction 0.34202 -0.939693 0  
     length 7.44434  
     axis 0 0 20  XYZ
    dof rx ry rz
    limits (-160.0 20.0)
           (-70.0 70.0)
           (-60.0 70.0)
  end
  begin
     id 3 
     name ltibia
     direction 0.34202 -0.939693 0   
     length 7.60047   
     axis 0 0 20   XYZ
    dof rx
    limits (-10.0 170.0)
  end
  begin
     id 4 
     name lfoot
     direction 0.0909041 -0.249757 0.964032   
     length 2.03437   
     axis -90 7.62852e-016 20   XYZ
    dof rx rz
    limits (-45.0 90.0)
           (-70.0 20.0)
  end
  begin
     id 5 
     name ltoes
     direction 1.53547e-011 -4.2174e-011 1   
     length 1.02054   
     axis -90 7.62852e-016 20   XYZ
    dof rx
    limits (-90.0 20.0)
  end
  begin
     id 6 
     name rhipjoint
     direction -0.558096 -0.746754 0.361784   
     length 2.3932  
     axis 0 0 0  XYZ 
  end
  begin
     id 7 
     name rfemur
     direction -0.34202 -0.939693 0   
     length 7.3886   
     axis 0 0 -20   XYZ
    dof rx ry rz
    limits (-160.0 20.0)
           (-70.0 70.0)
           (-70.0 60.0)
  end
  begin
     id 8 
     name rtibia
     direction -0.34202 -0.939693 0   
     length 7.4839   
     axis 0 0 -20   XYZ
    dof rx
    limits (-10.0 170.0)
 end
 begin
     id 9 
     name rfoot
     direction -0.114619 -0.314914 0.942174   
     length 2.25127  
     axis -90 -7.62852e-016 -20   XYZ
    dof rx rz
    limits (-45.0 90.0)
           (-20.0 70.0)
  end
  begin
     id 10 
     name rtoes
     direction -1.53518e-011 -4.21881e-011 1   
     length 1.11821   
     axis -90 -7.62852e-016 -20   XYZ
    dof rx
    limits (-90.0 20.0)
  end
  begin
     id 11 
     name lowerback
     direction -0.00902269 0.996426 -0.0839821   
     length 2.25052   
     axis 0 0 0   XYZ
    dof rx ry rz
    limits (-20.0 45.0)
           (-30.0 30.0)
           (-30.0 30.0)
  end
  begin
     id 12 
     name upperback
     direction 0.0370973 0.999169 -0.0168941   
     length 2.24876   
     axis 0 0 0   XYZ
    dof rx ry rz
    limits (-20.0 45.0)
           (-30.0 30.0)
           (-30.0 30.0)
  end
  begin
     id 13 
     name thorax
     direction 0.0402726 0.998931 0.0227027   
     length 2.26408   
     axis 0 0 0   XYZ
    dof rx ry rz
    limits (-20.0 45.0)
           (-30.0 30.0)
           (-30.0 30.0)
  end
  begin
     id 14 
     name lowerneck
     direction -0.0733697 0.98508 0.155675   
     length 1.58204   
     axis 0 0 0   XYZ
    dof rx ry rz
    limits (-20.0 45.0)
           (-30.0 30.0)
           (-30.0 30.0)
  end
  begin
     id 15 
     name upperneck
     direction 0.0426554 0.993501 -0.105526   
     length 1.61222   
     axis 0 0 0   XYZ
    dof rx ry rz
    limits (-20.0 45.0)
           (-30.0 30.0)
           (-30.0 30.0)
  end
  begin
     id 16
     name head
     direction 0.020792 0.998384 -0.0528868  
     length 1.61527  
     axis 0 0 0   XYZ
    dof rx ry rz
    limits (-20.0 45.0)
           (-30.0 30.0)
           (-30.0 30.0)
  end
  begin
     id 17 
     name lclavicle
     direction 0.967109 0.155462 -0.201325  
     length 3.59357  
     axis 0 0 0   XYZ
    dof ry rz
    limits (-20.0 10.0)
           (0.0 20.0)
  end
  begin
     id 18 
     name lhumerus
     direction 1 -4.48968e-011 2.38195e-027   
     length 5.38154   
     axis 180 -30 -90   XYZ
    dof rx ry rz
    limits (-60.0 90.0)
           (-90.0 90.0)
           (-90.0 90.0)
  end
  begin
     id 19
     name lradius
     direction 1 -4.48961e-011 4.85371e-027   
     length 3.33312   
     axis 180 -30 -90   XYZ
    dof rx
    limits (-10.0 170.0)
  end
  begin
     id 20
     name lwrist
     direction 1 -4.48961e-011 4.76515e-027   
     length 1.66656   
     axis -3.27502e-015 90 90   XYZ
    dof ry
    limits (-180.0 0.0)
 end
  begin
     id 21 
     name lhand
     direction 1 -4.48951e-011 9.53074e-027   
     length 0.710789   
     axis -6.08098e-015 90 90   XYZ
    dof rx rz
    limits (-90.0 90.0)
           (-45.0 45.0)
  end
  begin
     id 22 
     name lfingers
     direction 1 -4.48953e-011 1.90613e-026   
     length 0.573057   
     axis -1.21619e-014 90 90   XYZ
    dof rx
    limits (0.0 90.0)
  end
  begin
     id 23
     name lthumb
     direction 0.707107 -6.34973e-011 0.707107   
     length 0.822798   
     axis -90 45 -9.86923e-015   XYZ
    dof rx rz
    limits (-45.0 45.0)
           (-45.0 45.0)
  end
  begin
     id 24 
     name rclavicle
     direction -0.9585 0.265289 -0.104398   
     length 3.42039  
     axis 0 0 0   XYZ 
    dof ry rz
    limits (-10.0 20.0)
           (-20.0 0.0)
  end
  begin
     id 25 
     name rhumerus
     direction -1 -4.48977e-011 2.21478e-027  
     length 5.16954   
     axis 180 30 90   XYZ
    dof rx ry rz
    limits (-90.0 60.0)
           (-90.0 90.0)
           (-90.0 90.0)
  end
  begin
     id 26 
     name rradius
     direction -1 -4.48967e-011 5.63677e-027   
     length 3.38287   
     axis 180 30 90   XYZ
    dof rx
    limits (-10.0 170.0)
  end
  begin
     id 27 
     name rwrist
     direction -1 -4.48967e-011 4.76501e-027   
     length 1.69144   
     axis -3.27502e-015 -90 -90   XYZ
    dof ry
    limits (-180.0 0.0)
  end
  begin
     id 28
     name rhand
     direction -1 -4.48902e-011 9.53292e-027   
     length 0.817967   
     axis -6.08098e-015 -90 -90   XYZ
    dof rx rz
    limits (-90.0 90.0)
           (-45.0 45.0)
  end
  begin
     id 29
     name rfingers
     direction -1 -4.49012e-011 1.90561e-026   
     length 0.659466   
     axis -1.21619e-014 -90 -90   XYZ
    dof rx
    limits (0.0 90.0)
  end
  begin
     id 30
     name rthumb
     direction -0.707107 -6.34944e-011 0.707107   
     length 0.946865   
     axis -90 -45 9.86923e-015   XYZ
    dof rx rz
    limits (-45.0 45.0)
           (-45.0 45.0)
  end
:hierarchy
  begin
    root lhipjoint rhipjoint lowerback
    lhipjoint lfemur
    lfemur ltibia
    ltibia lfoot
    lfoot ltoes
    rhipjoint rfemur
    rfemur rtibia
    rtibia rfoot
    rfoot rtoes
    lowerback upperback
    upperback thorax
    thorax lowerneck lclavicle rclavicle
    lowerneck upperneck
    upperneck head
    lclavicle lhumerus
    lhumerus lradius
    lradius lwrist
    lwrist lhand lthumb
    lhand lfingers
    rclavicle rhumerus
    rhumerus rradius
    rradius rwrist
    rwrist rhand rthumb
    rhand rfingers
  end

#!OML:ASF F:\twosubjects\two\wednesday\Session 1\Justin1.ASF
:FULLY-SPECIFIED
:DEGREES
304
root 12.6365 17.6504 10.8993 -178.267 18.1168 -539.172
lowerback 3.43151 0.933364 0.601629
upperback 1.92328 1.38833 2.65999
thorax -0.00271628 0.737048 2.34435
lowerneck -17.537 -3.56144 -9.21722
upperneck 18.7931 -2.73067 2.5908
head 8.9726 -1.57893 2.06154
rclavicle -3.29983e-014 -3.81667e-014
rhumerus 40.3652 10.2209 -46.8467
rradius 31.1361
rwrist 0.492832
rhand -17.5104 26.0825
rfingers 7.12502
rthumb 8.74287 -3.71642
lclavicle -3.29983e-014 -3.81667e-014
lhumerus 17.691 -4.36327 48.3414
lradius 35.6088
lwrist -20.6031
lhand -5.46395 33.3317
lfingers 7.12502
lthumb 20.3476 62.2857
rfemur -22.6571 -3.58238 13.226
rtibia 33.4537
rfoot -8.9193 -5.5615
rtoes 1.22638
lfemur -0.4455 -12.4944 -18.7778
ltibia 31.7333
lfoot -9.48373 -30.1474
ltoes 27.6155
305
root 12.7194 17.6498 10.8404 -178.186 17.4173 -538.986
lowerback 3.21645 0.97803 1.00549
upperback 1.9213 1.45678 2.66169
thorax 0.122564 0.775176 2.12137
lowerneck -17.4026 -3.58789 -8.60365
upperneck 18.7343 -2.7602 1.79774
head 8.91001 -1.62991 1.68653
rclavicle 2.10712e-014 3.02153e-014
rhumerus 40.134 10.3425 -46.7106
rradius 31.4142
rwrist 0.134274
rhand -17.556 26.0047
rfingers 7.12502
rthumb 8.69884 -3.79607
lclavicle 2.10712e-014 3.02153e-014
lhumerus 17.6036 -4.14659 48.4422
lradius 35.5256
lwrist -20.5092
lhand -5.94921 32.6176
lfingers 7.12502
lthumb 19.8812 61.6207
rfemur -22.1793 -3.9114 13.5017
rtibia 33.5103
rfoot -9.57027 -5.38966
rtoes 3.78617
lfemur -1.0082 -12.6697 -18.2217
ltibia 33.0305
lfoot -7.97644 -30.775
ltoes 29.2799
306
root 12.7983 17.6592 10.7795 -178.222 16.8039 -538.962
lowerback 3.08475 1.04785 1.22274
upperback 2.0174 1.55516 2.67003
thorax 0.297226 0.828438 2.00947
lowerneck -17.2827 -3.66602 -8.63392
upperneck 18.6398 -2.90092 1.91941
head 8.86568 -1.68439 1.71567
rclavicle -5.41688e-014 -3.18055e-015
rhumerus 40.1225 10.2546 -46.5848
rradius 31.4805
rwrist 0.000658696
rhand -17.0876 26.1729
rfingers 7.12502
rthumb 9.15081 -3.60854
lclavicle -5.41688e-014 -3.18055e-015
lhumerus 17.6583 -3.92571 48.4871
lradius 35.3624
lwrist -20.5575
lhand -5.69126 32.2707
lfingers 7.12502
lthumb 20.1291 61.2479
rfemur -21.6136 -4.20621 13.5761
rtibia 33.5115
rfoot -10.0465 -5.16055
rtoes 7.59066
lfemur -1.57294 -12.9265 -17.9264
ltibia 34.4153
lfoot -6.27242 -31.2962
ltoes 31.4539
307
root 12.8797 17.6713 10.7273 -178.16 16.2043 -539.11
lowerback 3.08638 1.08753 1.11404
upperback 2.00925 1.6059 2.68571
thorax 0.283283 0.852876 2.08491
lowerneck -17.7409 -3.73819 -9.58728
upperneck 19.2693 -2.96235 3.15726
head 9.20371 -1.65358 2.28956
rclavicle 3.37934e-015 -3.33958e-014
rhumerus 40.3098 10.4536 -46.1843
rradius 31.3914
rwrist -0.237712
rhand -17.2842 26.1889
rfingers 7.12502
rthumb 8.96108 -3.60083
lclavicle 3.37934e-015 -3.33958e-014
lhumerus 17.644 -3.71609 48.4737
lradius 35.1354
lwrist -20.4963
lhand -5.65817 32.0308
lfingers 7.12502
lthumb 20.1609 61.0046
rfemur -21.3953 -4.75005 13.6705
rtibia 33.5105
rfoot -9.99206 -5.43524
rtoes 5.29117
lfemur -2.42425 -13.0767 -17.7423
ltibia 35.8878
lfoot -4.83004 -31.6427
ltoes 30.77
308
root 12.9609 17.6787 10.6803 -177.873 15.575 -538.562
lowerback 3.19367 1.07003 1.60155
upperback 1.89302 1.61873 2.95625
thorax 0.109127 0.868898 2.08525
lowerneck -18.1947 -3.78988 -10.2976
upperneck 19.8757 -2.90489 3.75198
head 9.51638 -1.61528 2.62461
rclavicle -5.11871e-014 5.56597e-015
rhumerus 40.4662 10.7313 -45.9958
rradius 31.2628
rwrist -0.247862
rhand -18.0148 26.4533
rfingers 7.12502
rthumb 8.25601 -3.36542
lclavicle -5.11871e-014 5.56597e-015
lhumerus 17.3967 -3.58027 48.4728
lradius 35.0585
lwrist -20.3061
lhand -5.61703 32.1079
lfingers 7.12502
lthumb 20.2005 61.0775
rfemur -21.1798 -5.24472 14.5638
rtibia 33.4493
rfoot -9.99096 -5.86082
rtoes 1.04399
lfemur -3.45726 -12.874 -16.6598
ltibia 37.4647
lfoot -2.76826 -32.3438
ltoes 30.5824
309
root 13.0383 17.6829 10.6294 -177.705 14.7293 -538.023
lowerback 3.21416 0.983517 2.28736
upperback 1.89978 1.54252 3.1267
thorax 0.119425 0.843568 1.87858
lowerneck -18.2329 -3.75346 -10.1344
upperneck 19.5513 -2.81349 3.35322
head 9.39501 -1.60319 2.46603
rclavicle -1.14301e-014 -5.56597e-014
rhumerus 40.5674 10.6518 -46.2093
rradius 31.1861
rwrist 0.0165316
rhand -17.9973 26.8379
rfingers 7.12502
rthumb 8.27297 -2.98014
lclavicle -1.14301e-014 -5.56597e-014
lhumerus 17.2208 -3.58235 48.2594
lradius 35.2624
lwrist -19.9505
lhand -5.56403 32.7904
lfingers 7.12502
lthumb 20.2514 61.7547
rfemur -20.6929 -5.83449 15.3314
rtibia 33.2709
rfoot -10.4661 -6.09932
rtoes -0.015477
lfemur -4.4933 -12.8199 -15.557
ltibia 39.1417
lfoot 0.254593 -32.8885
ltoes 32.6882
310
root 13.1146 17.6966 10.5751 -177.619 13.9476 -537.795
lowerback 3.19816 0.988329 2.7293
upperback 1.90873 1.56632 3.11769
thorax 0.149025 0.861858 1.62193
lowerneck -18.0727 -3.70243 -10.0844
upperneck 19.041 -2.79318 3.34819
head 9.18467 -1.58893 2.45434
rclavicle 4.04527e-014 -3.10104e-014
rhumerus 40.4193 10.4287 -46.4069
rradius 31.1916
rwrist 0.178668
rhand -17.8545 26.7723
rfingers 7.12502
rthumb 8.41074 -3.04021
lclavicle 4.04527e-014 -3.10104e-014
lhumerus 17.1887 -3.62234 48.0973
lradius 35.4804
lwrist -19.6471
lhand -5.57499 33.3589
lfingers 7.12502
lthumb 20.2409 62.3243
rfemur -20.1784 -6.53641 15.7499
rtibia 32.9994
rfoot -10.9204 -6.20361
rtoes 1.12579
lfemur -5.59572 -12.9384 -14.8631
ltibia 40.8576
lfoot 4.00369 -32.6587
ltoes 35.5852
311
root 13.1929 17.7219 10.5259 -177.47 13.5534 -537.307
lowerback 3.29756 1.10752 3.21356
upperback 1.88976 1.76178 3.26362
thorax 0.0820308 0.969062 1.49298
lowerneck -17.9942 -3.72046 -10.2753
upperneck 18.8418 -2.83422 3.58357
head 9.11045 -1.59578 2.56015
rclavicle -1.66979e-014 -9.54166e-015
rhumerus 40.2839 10.2788 -46.5892
rradius 31.2055
rwrist 0.328898
rhand -17.7293 26.6722
rfingers 7.12502
rthumb 8.53163 -3.1354
lclavicle -1.66979e-014 -9.54166e-015
lhumerus 17.1172 -3.26475 48.2326
lradius 35.5484
lwrist -19.799
lhand -5.47743 33.2485
lfingers 7.12502
lthumb 20.3346 62.2039
rfemur -19.6778 -6.86343 16.4794
rtibia 32.6584
rfoot -11.1321 -6.11307
rtoes 3.05962
lfemur -6.71089 -12.6653 -13.8826
ltibia 42.5572
lfoot 7.49946 -32.2442
ltoes 37.6916
312
root 13.2689 17.7372 10.4799 -177.408 13.2314 -536.963
lowerback 3.48491 1.20282 3.46591
upperback 1.8312 1.92704 3.4496
thorax -0.0817484 1.05779 1.53216
lowerneck -17.8693 -3.7126 -10.2985
upperneck 18.7723 -2.81088 3.512
head 9.06216 -1.59247 2.54258
rclavicle -3.90612e-014 1.43125e-014
rhumerus 40.1664 10.3859 -46.6144
rradius 31.3525
rwrist 0.286755
rhand -16.6765 26.8088
rfingers 7.12502
rthumb 9.54745 -2.9549
lclavicle -3.90612e-014 1.43125e-014
lhumerus 16.9496 -2.75135 48.4678
lradius 35.4969
lwrist -20.2423
lhand -5.52441 32.5784
lfingers 7.12502
lthumb 20.2895 61.5386
rfemur -19.12 -7.13638 17.0431
rtibia 32.2061
rfoot -11.1837 -5.94376
rtoes 4.1681
lfemur -7.77292 -12.3034 -13.0483
ltibia 44.2242
lfoot 10.0732 -32.1379
ltoes 37.3503
313
root 13.3396 17.7384 10.432 -177.389 12.7356 -536.688
lowerback 3.65457 1.2926 3.80244
upperback 1.74904 2.08256 3.52848
thorax -0.252577 1.13915 1.41387
lowerneck -17.4177 -3.67114 -10.1953
upperneck 18.2768 -2.81269 3.38736
head 8.80694 -1.59554 2.48104
rclavicle -1.88845e-015 3.10104e-014
rhumerus 39.7995 10.5551 -46.364
rradius 31.6693
rwrist -0.138456
rhand -15.5339 26.4432
rfingers 7.12502
rthumb 10.6498 -3.26692
lclavicle -1.88845e-015 3.10104e-014
lhumerus 17.0221 -2.78584 48.4339
lradius 35.402
lwrist -20.2728
lhand -5.75978 32.4377
lfingers 7.12502
lthumb 20.0633 61.4219
rfemur -18.5192 -7.67118 17.5087
rtibia 31.7334
rfoot -11.1372 -5.73663
rtoes 4.83972
lfemur -8.84985 -12.1472 -12.3306
ltibia 45.8074
lfoot 12.596 -31.9116
ltoes 34.9082
314
root 13.4077 17.7482 10.3833 -177.339 12.09 -536.158
lowerback 3.80446 1.28469 4.41573
upperback 1.76571 2.1292 3.69166
thorax -0.303799 1.17536 1.23468
lowerneck -17.4659 -3.67554 -10.5339
upperneck 18.1503 -2.82952 3.83591
head 8.78442 -1.58038 2.68669
rclavicle -2.82274e-014 -6.83819e-014
rhumerus 39.7885 10.8753 -45.8478
rradius 31.8856
rwrist -0.752158
rhand -17.8524 26.639
rfingers 7.12502
rthumb 8.4128 -3.17343
lclavicle -2.82274e-014 -6.83819e-014
lhumerus 17.2293 -2.83205 48.2634
lradius 35.2587
lwrist -19.9616
lhand -6.02367 32.905
lfingers 7.12502
lthumb 19.8096 61.9155
rfemur -17.9233 -8.36293 18.237
rtibia 31.4058
rfoot -11.2211 -5.57739
rtoes 4.3445
lfemur -9.91753 -12.1108 -11.369
ltibia 47.2528
lfoot 14.7429 -31.6668
ltoes 30.004
315
root 13.4734 17.7656 10.3314 -177.372 11.4999 -535.952
lowerback 3.9243 1.28096 4.6537
upperback 1.83638 2.15717 3.80333
thorax -0.293859 1.19882 1.21415
lowerneck -18.6606 -3.71854 -10.7632
upperneck 19.3723 -2.73983 4.16054
head 9.42406 -1.52526 2.85694
rclavicle 1.96797e-014 1.90833e-014
rhumerus 39.9521 11.2653 -45.2547
rradius 32.0818
rwrist -1.38281
rhand -18.3913 26.605
rfingers 7.12502
rthumb 7.89269 -3.22769
lclavicle 1.96797e-014 1.90833e-014
lhumerus 17.4078 -2.66807 48.1894
lradius 35.1187
lwrist -19.6675
lhand -6.21538 33.0219
lfingers 7.12502
lthumb 19.6253 62.0513
rfemur -17.3911 -9.01925 18.5997
rtibia 31.174
rfoot -11.3669 -5.52488
rtoes 2.56747
lfemur -10.8397 -12.0868 -10.8392
ltibia 48.5639
lfoot 15.5423 -31.7504
ltoes 22.4124
316
root 13.5341 17.7715 10.2794 -177.369 11.0808 -535.925
lowerback 3.96335 1.39933 4.67349
upperback 1.84441 2.32694 3.87221
thorax -0.307611 1.28676 1.26641
lowerneck -19.4143 -3.75279 -10.1818
upperneck 20.08 -2.66496 3.37783
head 9.78671 -1.53598 2.5006
rclavicle 2.98177e-015 -2.54444e-014
rhumerus 39.9654 11.1237 -45.3642
rradius 31.9135
rwrist -1.15965
rhand -17.8757 26.4836
rfingers 7.12502
rthumb 8.39025 -3.3298
lclavicle 2.98177e-015 -2.54444e-014
lhumerus 17.5347 -2.61795 48.2214
lradius 35.1231
lwrist -19.5413
lhand -6.63538 32.901
lfingers 7.12502
lthumb 19.2215 61.9711
rfemur -17.0357 -9.51899 18.7585
rtibia 31.026
rfoot -11.4494 -5.43388
rtoes 1.44548
lfemur -11.681 -11.8405 -10.5499
ltibia 49.7787
lfoot 15.0177 -32.196
ltoes 13.8672
317
root 13.5929 17.7737 10.2319 -177.19 10.7028 -535.425
lowerback 4.00212 1.47718 5.14285
upperback 1.78469 2.4841 4.09765
thorax -0.380152 1.37664 1.22936
lowerneck -19.0046 -3.77868 -9.76313
upperneck 19.4562 -2.69858 2.61395
head 9.47871 -1.6003 2.15491
rclavicle -4.18442e-014 -3.10104e-014
rhumerus 40.1273 10.7095 -46.056
rradius 31.3833
rwrist -0.173966
rhand -17.5744 26.7371
rfingers 7.12502
rthumb 8.68104 -3.06444
lclavicle -4.18442e-014 -3.10104e-014
lhumerus 17.5786 -2.43495 48.2933
lradius 35.1615
lwrist -19.6004
lhand -6.77655 33.1493
lfingers 7.12502
lthumb 19.0857 62.2329
rfemur -16.8523 -9.89816 19.4665
rtibia 30.9903
rfoot -11.7503 -5.43079
rtoes 0.556377
lfemur -12.6471 -11.3695 -9.69616
ltibia 50.9521
lfoot 13.0996 -32.4933
ltoes 4.7447
